<svg data-v-70b83f88="" version="1.0" xmlns="http://www.w3.org/2000/svg" xmlns:xlink="http://www.w3.org/1999/xlink" width="100%" height="100%" viewBox="0 0 340.000000 250.000000" preserveAspectRatio="xMidYMid meet" color-interpolation-filters="sRGB" style="margin: auto;"> 
        <rect data-v-70b83f88="" x="0" y="0" width="100%" height="100%" fill="#fff" fillOpacity="0" className="background"></rect> 
        <rect data-v-70b83f88="" x="0" y="0" width="100%" height="100%" fill="url(#watermark)" fillOpacity="0" className="watermarklayer"></rect> 
        <g data-v-70b83f88="" fill="#333" className="icon-text-wrapper icon-svg-group iconsvg" transform="translate(82.55000305175781,84.73307037353516)">
            <g className="iconsvg-imagesvg" transform="matrix(1,0,0,1,57.449995040893555,0)" opacity="1">
                <g>
                    <rect fill="#333" fillOpacity="0" strokeWidth="2" x="0" y="0" width="60" height="36.15786523963625" className="image-rect"></rect> 
                    <svg x="0" y="0" width="60" height="36.15786523963625" filtersec="colorsb9277292784" className="image-svg-svg primary" style="overflow: visible;">
                        <svg xmlns="http://www.w3.org/2000/svg" viewBox="-0.0015021860599517822 0.020790576934814453 148.58535766601562 89.54210662841797">
                            <title>Logo MM</title>
                            <path d="M58.5 10.18c-14.73.17-23.87 5.91-27.33 17.57a35.94 35.94 0 0 0-1.24 9.82c-.12 15.31-.05 30.61-.05 45.92v5.75H.6a8.59 8.59 0 0 1-.51-2c.07-18.79-.48-37.61.5-56.36C1.29 17.29 9.38 7.75 22 2.7S46.43-.12 57.12 8.2a5.44 5.44 0 0 1 1 1.06 3.51 3.51 0 0 1 .38.92zM138 10.18c-20.6-1-30.29 14-28.79 28.9a117.42 117.42 0 0 1 0 15.47c-.21 7.28-4.4 12.63-10.9 14.45-9.45 2.67-18.62-3.77-18.91-13.59A218.7 218.7 0 0 1 79.53 32c1.09-13.82 8.4-23.73 21.15-29 12.94-5.38 25.07-3.19 36 5.65a10.55 10.55 0 0 1 1.32 1.53z" fill="#1d2088"></path>
                            <path d="M99.1 79.35c-12 10.31-24.67 13-38.32 7.22C47.29 80.83 40.33 70 39.7 55.31c-.29-6.66-.12-13.33 0-20 .12-8.65 6.29-15.12 14.5-15.37 8.54-.25 15 5.94 15.3 15 .21 5.32.09 10.66.1 16-.02 18.81 9.79 28.57 29.5 28.41zM148.57 89.32h-29.06a28 28 0 0 1-.47-3.59c0-17-.11-33.94 0-50.91.06-8.67 6.42-14.88 14.78-14.88s14.68 6.3 14.71 14.94c.09 17.96.04 35.92.04 54.44z" fill="#7ecef4"></path>
                        </svg>
                    </svg>
                </g>
            </g> 
                
            <g transform="translate(0,43.15786361694336)">
                <g data-gra="path-name" fillRule="" className="tp-name iconsvg-namesvg" transform="matrix(1,0,0,1,0,0)" opacity="1">
                    <g transform="scale(1)">
                        <g>
                            <path d="M2.76-21.88L5.21-21.88 13.28-2.57 21.38-21.88 23.85-21.88 23.85 0 22 0 22-9.53 22.15-19.29 14 0 12.58 0 4.46-19.22 4.61-9.59 4.61 0 2.76 0 2.76-21.88ZM41.16 0L39.23 0Q38.96-0.77 38.89-2.27L38.89-2.27Q37.94-1.04 36.48-0.37 35.01 0.3 33.37 0.3L33.37 0.3Q31.03 0.3 29.58-1.01 28.13-2.31 28.13-4.31L28.13-4.31Q28.13-6.69 30.11-8.07 32.08-9.45 35.61-9.45L35.61-9.45 38.87-9.45 38.87-11.3Q38.87-13.04 37.8-14.04 36.72-15.04 34.67-15.04L34.67-15.04Q32.79-15.04 31.56-14.08 30.32-13.12 30.32-11.77L30.32-11.77 28.52-11.78Q28.52-13.72 30.32-15.14 32.13-16.56 34.76-16.56L34.76-16.56Q37.48-16.56 39.05-15.2 40.62-13.84 40.66-11.4L40.66-11.4 40.66-3.71Q40.66-1.35 41.16-0.18L41.16-0.18 41.16 0ZM33.58-1.29L33.58-1.29Q35.39-1.29 36.81-2.16 38.23-3.04 38.87-4.49L38.87-4.49 38.87-8.07 35.66-8.07Q32.97-8.04 31.45-7.08 29.93-6.13 29.93-4.46L29.93-4.46Q29.93-3.1 30.95-2.19 31.96-1.29 33.58-1.29ZM53.01-16.36L52.97-14.73Q52.4-14.83 51.75-14.83L51.75-14.83Q50.07-14.83 48.9-13.89 47.74-12.95 47.24-11.16L47.24-11.16 47.24 0 45.45 0 45.45-16.26 47.21-16.26 47.24-13.67Q48.67-16.56 51.83-16.56L51.83-16.56Q52.58-16.56 53.01-16.36L53.01-16.36ZM57.55-20.42L59.35-20.42 59.35-16.26 62.72-16.26 62.72-14.79 59.35-14.79 59.35-3.95Q59.35-2.6 59.84-1.94 60.33-1.28 61.47-1.28L61.47-1.28Q61.92-1.28 62.93-1.43L62.93-1.43 63.01 0.05Q62.3 0.3 61.08 0.3L61.08 0.3Q59.23 0.3 58.39-0.77 57.55-1.85 57.55-3.94L57.55-3.94 57.55-14.79 54.56-14.79 54.56-16.26 57.55-16.26 57.55-20.42ZM68.46-16.26L68.46 0 66.66 0 66.66-16.26 68.46-16.26ZM66.34-20.96L66.34-20.96Q66.34-21.47 66.67-21.83 67-22.18 67.57-22.18 68.14-22.18 68.48-21.83 68.82-21.47 68.82-20.96 68.82-20.45 68.48-20.11 68.14-19.76 67.57-19.76 67-19.76 66.67-20.11 66.34-20.45 66.34-20.96ZM73.34-16.26L75.06-16.26 75.12-13.48Q76.03-14.98 77.4-15.77 78.77-16.56 80.42-16.56L80.42-16.56Q83.04-16.56 84.31-15.09 85.59-13.61 85.6-10.67L85.6-10.67 85.6 0 83.82 0 83.82-10.68Q83.8-12.86 82.89-13.93 81.98-15 79.98-15L79.98-15Q78.32-15 77.03-13.95 75.75-12.91 75.13-11.13L75.13-11.13 75.13 0 73.34 0 73.34-16.26Z" transform="translate(-2.759999990463257, 22.920000076293945)"></path>
                        </g>
                        <g data-gra="path-name-1" fill="#333" transform="translate(85.83999633789062,0)">
                            <g transform="scale(1)">
                                <path d="M1.65-21.88L8.58-21.88 13.46-6.66 18.33-21.88 25.27-21.88 25.27 0 19.98 0 19.98-5.11 20.5-15.57 15.21 0 11.72 0 6.42-15.58 6.93-5.11 6.93 0 1.65 0 1.65-21.88ZM42.61 0L37.55 0Q37.28-0.5 37.07-1.46L37.07-1.46Q35.67 0.3 33.16 0.3L33.16 0.3Q30.86 0.3 29.26-1.09 27.65-2.48 27.65-4.58L27.65-4.58Q27.65-7.23 29.6-8.58 31.56-9.93 35.28-9.93L35.28-9.93 36.84-9.93 36.84-10.79Q36.84-13.03 34.91-13.03L34.91-13.03Q33.1-13.03 33.1-11.25L33.1-11.25 28.04-11.25Q28.04-13.61 30.05-15.09 32.05-16.56 35.16-16.56 38.27-16.56 40.08-15.04 41.88-13.52 41.92-10.88L41.92-10.88 41.92-3.68Q41.95-1.44 42.61-0.26L42.61-0.26 42.61 0ZM34.38-3.31L34.38-3.31Q35.33-3.31 35.95-3.71 36.57-4.12 36.84-4.63L36.84-4.63 36.84-7.23 35.37-7.23Q32.73-7.23 32.73-4.85L32.73-4.85Q32.73-4.16 33.19-3.73 33.66-3.31 34.38-3.31ZM54.65-16.38L54.56-11.68 52.89-11.8Q50.5-11.8 49.83-10.29L49.83-10.29 49.83 0 44.76 0 44.76-16.26 49.51-16.26 49.68-14.17Q50.95-16.56 53.24-16.56L53.24-16.56Q54.05-16.56 54.65-16.38L54.65-16.38ZM57.97-20.3L63.04-20.3 63.04-16.26 65.71-16.26 65.71-12.74 63.04-12.74 63.04-5.3Q63.04-4.39 63.37-4.03 63.7-3.67 64.67-3.67L64.67-3.67Q65.42-3.67 65.94-3.76L65.94-3.76 65.94-0.14Q64.57 0.3 63.08 0.3L63.08 0.3Q60.47 0.3 59.22-0.93 57.97-2.16 57.97-4.67L57.97-4.67 57.97-12.74 55.9-12.74 55.9-16.26 57.97-16.26 57.97-20.3ZM73.04-16.26L73.04 0 67.96 0 67.96-16.26 73.04-16.26ZM67.66-20.45L67.66-20.45Q67.66-21.53 68.44-22.22 69.23-22.92 70.47-22.92 71.72-22.92 72.5-22.22 73.28-21.53 73.28-20.45 73.28-19.37 72.5-18.68 71.72-17.99 70.47-17.99 69.23-17.99 68.44-18.68 67.66-19.37 67.66-20.45ZM76.06-16.26L80.81-16.26 80.98-14.35Q82.66-16.56 85.62-16.56L85.62-16.56Q88.16-16.56 89.41-15.04 90.67-13.52 90.71-10.47L90.71-10.47 90.71 0 85.63 0 85.63-10.26Q85.63-11.5 85.14-12.07 84.64-12.65 83.34-12.65L83.34-12.65Q81.85-12.65 81.13-11.48L81.13-11.48 81.13 0 76.06 0 76.06-16.26Z" transform="translate(-1.6500000953674316, 22.920000076293945)"></path>
                            </g>
                        </g>
                    </g>
                </g> 
                <g data-gra="path-slogan" fillRule="" className="tp-slogan iconsvg-slogansvg" fill="#333" transform="matrix(1,0,0,1,5,29.219999313354492)" opacity="1">
                    <rect x="0" height="1" y="3.580000400543213" width="50.82499694824219"></rect> 
                    <rect height="1" y="3.580000400543213" width="50.82499694824219" x="114.07499694824219"></rect> 
                    <g transform="translate(53.82499694824219,0)">
                        <g transform="scale(1)">
                            <path d="M1.08-7.87L1.08 0L3.10 0C3.69 0 4.21-0.09 4.67-0.27C5.12-0.45 5.51-0.71 5.82-1.05C6.13-1.39 6.37-1.81 6.53-2.30C6.69-2.79 6.77-3.35 6.77-3.97C6.77-5.23 6.45-6.19 5.82-6.86C5.19-7.54 4.26-7.87 3.05-7.87ZM2.98-0.82L2.08-0.82L2.08-7.06L2.98-7.06C3.90-7.06 4.59-6.79 5.05-6.26C5.51-5.74 5.74-4.97 5.74-3.97C5.74-2.97 5.51-2.20 5.05-1.64C4.59-1.09 3.90-0.82 2.98-0.82ZM8.46-7.87L8.46 0L13.12 0L13.12-0.85L9.46-0.85L9.46-3.71L12.44-3.71L12.44-4.56L9.46-4.56L9.46-7.03L13.00-7.03L13.00-7.87ZM14.78-7.87L14.78 0L19.22 0L19.22-0.85L15.78-0.85L15.78-7.87ZM22.58-3.94C22.58-3.30 22.67-2.72 22.84-2.21C23.01-1.71 23.25-1.28 23.56-0.93C23.87-0.58 24.23-0.32 24.65-0.13C25.07 0.05 25.53 0.14 26.03 0.14C26.53 0.14 26.98 0.04 27.37-0.16C27.76-0.36 28.12-0.64 28.43-1.00L27.86-1.61C27.61-1.33 27.34-1.11 27.05-0.96C26.77-0.81 26.44-0.73 26.05-0.73C25.68-0.73 25.34-0.81 25.04-0.96C24.74-1.11 24.48-1.33 24.28-1.61C24.07-1.89 23.91-2.23 23.79-2.62C23.67-3.02 23.62-3.46 23.62-3.96C23.62-4.45 23.68-4.89 23.80-5.28C23.92-5.67 24.08-6.01 24.30-6.28C24.52-6.56 24.78-6.77 25.08-6.92C25.38-7.07 25.72-7.14 26.10-7.14C26.44-7.14 26.73-7.07 26.98-6.94C27.23-6.81 27.46-6.63 27.67-6.41L28.24-7.04C28.00-7.30 27.71-7.53 27.35-7.72C26.99-7.92 26.57-8.02 26.09-8.02C25.58-8.02 25.12-7.92 24.69-7.73C24.26-7.55 23.89-7.28 23.58-6.92C23.27-6.57 23.02-6.14 22.85-5.64C22.67-5.14 22.58-4.57 22.58-3.94ZM33.24-3.20L30.88-3.20L31.25-4.40C31.39-4.84 31.53-5.28 31.66-5.72C31.78-6.15 31.91-6.60 32.03-7.06L32.08-7.06C32.20-6.60 32.33-6.15 32.46-5.72C32.59-5.28 32.72-4.84 32.87-4.40ZM33.49-2.40L34.24 0L35.30 0L32.64-7.87L31.51-7.87L28.85 0L29.87 0L30.62-2.40ZM36.42-7.87L36.42 0L37.34 0L37.34-4.33C37.34-4.68 37.33-5.07 37.30-5.50C37.26-5.92 37.24-6.31 37.21-6.66L37.26-6.66L37.88-4.91L39.41-0.79L39.97-0.79L41.48-4.91L42.12-6.66L42.17-6.66C42.14-6.31 42.11-5.92 42.08-5.50C42.05-5.07 42.04-4.68 42.04-4.33L42.04 0L42.98 0L42.98-7.87L41.81-7.87L40.30-3.65L39.74-2.04L39.70-2.04L39.12-3.65L37.60-7.87ZM45.14-7.87L45.14 0L46.14 0L46.14-3.12L47.56-3.12C47.99-3.12 48.38-3.17 48.74-3.27C49.09-3.37 49.40-3.52 49.66-3.72C49.91-3.92 50.11-4.17 50.25-4.48C50.39-4.78 50.46-5.14 50.46-5.56C50.46-5.99 50.39-6.35 50.25-6.65C50.11-6.94 49.91-7.18 49.66-7.36C49.41-7.54 49.10-7.67 48.74-7.75C48.38-7.83 47.99-7.87 47.56-7.87ZM47.44-3.94L46.14-3.94L46.14-7.07L47.44-7.07C48.12-7.07 48.62-6.96 48.96-6.74C49.30-6.52 49.46-6.12 49.46-5.56C49.46-5.00 49.30-4.59 48.97-4.33C48.63-4.07 48.12-3.94 47.44-3.94ZM54.96 0.14C55.46 0.14 55.91 0.05 56.32-0.14C56.73-0.34 57.09-0.61 57.39-0.97C57.69-1.32 57.92-1.75 58.09-2.26C58.25-2.77 58.33-3.34 58.33-3.97C58.33-4.60 58.25-5.16 58.09-5.66C57.92-6.16 57.69-6.58 57.39-6.93C57.09-7.28 56.73-7.55 56.32-7.73C55.91-7.92 55.46-8.02 54.96-8.02C54.46-8.02 54.01-7.92 53.60-7.74C53.19-7.56 52.83-7.29 52.54-6.94C52.24-6.59 52.01-6.17 51.85-5.67C51.68-5.17 51.60-4.60 51.60-3.97C51.60-3.34 51.68-2.77 51.85-2.26C52.01-1.75 52.24-1.32 52.54-0.97C52.83-0.61 53.19-0.34 53.60-0.14C54.01 0.05 54.46 0.14 54.96 0.14ZM54.96-0.73C54.61-0.73 54.29-0.81 54.01-0.96C53.72-1.11 53.48-1.33 53.27-1.61C53.07-1.90 52.91-2.24 52.80-2.63C52.69-3.03 52.63-3.48 52.63-3.97C52.63-4.46 52.69-4.90 52.80-5.29C52.91-5.68 53.07-6.02 53.27-6.29C53.48-6.56 53.72-6.77 54.01-6.92C54.29-7.07 54.61-7.14 54.96-7.14C55.31-7.14 55.63-7.07 55.91-6.92C56.20-6.77 56.44-6.56 56.65-6.29C56.85-6.02 57.01-5.68 57.12-5.29C57.23-4.90 57.29-4.46 57.29-3.97C57.29-3.48 57.23-3.03 57.12-2.63C57.01-2.24 56.85-1.90 56.65-1.61C56.44-1.33 56.20-1.11 55.91-0.96C55.63-0.81 55.31-0.73 54.96-0.73Z" transform="translate(-1.08, 8.016)"></path>
                        </g>
                    </g>
                </g>
            </g>
        </g>
    <defs v-gra="od"></defs>
    </svg>